{
	"patcher" : 	{
		"fileversion" : 1,
		"appversion" : 		{
			"major" : 8,
			"minor" : 2,
			"revision" : 0,
			"architecture" : "x64",
			"modernui" : 1
		}
,
		"classnamespace" : "box",
		"rect" : [ 41.0, 84.0, 1068.0, 705.0 ],
		"bglocked" : 0,
		"openinpresentation" : 1,
		"default_fontsize" : 12.0,
		"default_fontface" : 0,
		"default_fontname" : "Arial",
		"gridonopen" : 1,
		"gridsize" : [ 15.0, 15.0 ],
		"gridsnaponopen" : 1,
		"objectsnaponopen" : 1,
		"statusbarvisible" : 2,
		"toolbarvisible" : 1,
		"lefttoolbarpinned" : 0,
		"toptoolbarpinned" : 0,
		"righttoolbarpinned" : 0,
		"bottomtoolbarpinned" : 0,
		"toolbars_unpinned_last_save" : 0,
		"tallnewobj" : 0,
		"boxanimatetime" : 200,
		"enablehscroll" : 1,
		"enablevscroll" : 1,
		"devicewidth" : 0.0,
		"description" : "",
		"digest" : "",
		"tags" : "",
		"style" : "",
		"subpatcher_template" : "",
		"assistshowspatchername" : 0,
		"boxes" : [ 			{
				"box" : 				{
					"comment" : "",
					"id" : "obj-67",
					"index" : 0,
					"maxclass" : "inlet",
					"numinlets" : 0,
					"numoutlets" : 1,
					"outlettype" : [ "" ],
					"patching_rect" : [ 876.334166999999979, 485.5, 30.0, 30.0 ]
				}

			}
, 			{
				"box" : 				{
					"fontname" : "Arial",
					"fontsize" : 12.0,
					"id" : "obj-53",
					"maxclass" : "newobj",
					"numinlets" : 1,
					"numoutlets" : 0,
					"patching_rect" : [ 878.98443599999996, 634.0, 41.0, 22.0 ],
					"text" : "s size"
				}

			}
, 			{
				"box" : 				{
					"fontname" : "Arial",
					"fontsize" : 12.0,
					"id" : "obj-55",
					"maxclass" : "newobj",
					"numinlets" : 1,
					"numoutlets" : 2,
					"outlettype" : [ "bang", "" ],
					"patching_rect" : [ 876.334166999999979, 532.0, 42.333343999999997, 22.0 ],
					"text" : "t b s"
				}

			}
, 			{
				"box" : 				{
					"#init" : "0 46 5 100",
					"#loadbang" : 0,
					"#triggerall" : 0,
					"#untuple" : 0,
					"fontface" : 0,
					"fontname" : "Geneva",
					"fontsize" : 8.375361,
					"ftm_objref_conv" : 0,
					"ftm_scope" : 1,
					"id" : "obj-60",
					"maxclass" : "ftm.mess",
					"numinlets" : 2,
					"numoutlets" : 1,
					"outlettype" : [ "" ],
					"patching_rect" : [ 878.98443599999996, 606.0, 81.112434387207031, 15.0 ],
					"text" : [ "_($1 * 0.0226757)" ]
				}

			}
, 			{
				"box" : 				{
					"#init" : "0 46 5 100",
					"#loadbang" : 0,
					"#triggerall" : 0,
					"#untuple" : 0,
					"fontface" : 0,
					"fontname" : "Geneva",
					"fontsize" : 8.375361,
					"ftm_objref_conv" : 0,
					"ftm_scope" : 0,
					"id" : "obj-64",
					"maxclass" : "ftm.mess",
					"numinlets" : 2,
					"numoutlets" : 1,
					"outlettype" : [ "" ],
					"patching_rect" : [ 876.334166999999979, 584.0, 64.189949035644531, 15.0 ],
					"text" : [ "_(l ($buf size))" ]
				}

			}
, 			{
				"box" : 				{
					"#init" : "0 46 5 100",
					"#loadbang" : 0,
					"#triggerall" : 0,
					"#untuple" : 0,
					"fontface" : 0,
					"fontname" : "Geneva",
					"fontsize" : 8.375361,
					"ftm_objref_conv" : 0,
					"ftm_scope" : 0,
					"id" : "obj-42",
					"maxclass" : "ftm.mess",
					"numinlets" : 2,
					"numoutlets" : 1,
					"outlettype" : [ "" ],
					"patching_rect" : [ 922.543350219726562, 543.14010600000006, 48.068353176116943, 15.0 ],
					"text" : [ "_import $1" ]
				}

			}
, 			{
				"box" : 				{
					"description" : "fmat",
					"editor_interface" : "matrix",
					"fontface" : 0,
					"fontname" : "Geneva",
					"fontsize" : 9.0,
					"ftm_objref_conv" : 0,
					"ftm_scope" : 0,
					"id" : "obj-66",
					"maxclass" : "ftm.object",
					"name" : "buf",
					"numinlets" : 1,
					"numoutlets" : 2,
					"outlettype" : [ "", "" ],
					"patching_rect" : [ 922.543350219726562, 564.0, 62.63720703125, 16.0 ],
					"persistence" : 0,
					"scope" : 0,
					"text" : "fmat"
				}

			}
, 			{
				"box" : 				{
					"id" : "obj-65",
					"maxclass" : "button",
					"numinlets" : 1,
					"numoutlets" : 1,
					"outlettype" : [ "bang" ],
					"parameter_enable" : 0,
					"patching_rect" : [ 23.0, 354.411757946014404, 24.0, 24.0 ]
				}

			}
, 			{
				"box" : 				{
					"id" : "obj-54",
					"maxclass" : "message",
					"numinlets" : 2,
					"numoutlets" : 1,
					"outlettype" : [ "" ],
					"patching_rect" : [ 585.0, 565.0, 91.0, 22.0 ],
					"text" : "lowFstable.wav"
				}

			}
, 			{
				"box" : 				{
					"comment" : "Trigger",
					"id" : "obj-50",
					"index" : 0,
					"maxclass" : "inlet",
					"numinlets" : 0,
					"numoutlets" : 1,
					"outlettype" : [ "" ],
					"patching_rect" : [ 701.972672939300537, 228.640106000000003, 30.0, 30.0 ]
				}

			}
, 			{
				"box" : 				{
					"comment" : "grain position variation",
					"id" : "obj-49",
					"index" : 0,
					"maxclass" : "inlet",
					"numinlets" : 0,
					"numoutlets" : 1,
					"outlettype" : [ "" ],
					"patching_rect" : [ 581.358985420410136, 228.640106000000003, 30.0, 30.0 ]
				}

			}
, 			{
				"box" : 				{
					"comment" : "grain duration",
					"id" : "obj-31",
					"index" : 0,
					"maxclass" : "inlet",
					"numinlets" : 0,
					"numoutlets" : 1,
					"outlettype" : [ "" ],
					"patching_rect" : [ 640.420171022415161, 228.640106000000003, 30.0, 30.0 ]
				}

			}
, 			{
				"box" : 				{
					"comment" : "grain position",
					"id" : "obj-47",
					"index" : 0,
					"maxclass" : "inlet",
					"numinlets" : 0,
					"numoutlets" : 1,
					"outlettype" : [ "" ],
					"patching_rect" : [ 518.0, 228.640106000000003, 30.0, 30.0 ]
				}

			}
, 			{
				"box" : 				{
					"id" : "obj-44",
					"maxclass" : "message",
					"numinlets" : 2,
					"numoutlets" : 1,
					"outlettype" : [ "" ],
					"patching_rect" : [ 452.0, 549.555541999999946, 37.0, 22.0 ],
					"text" : "clear"
				}

			}
, 			{
				"box" : 				{
					"comment" : "gain",
					"id" : "obj-16",
					"index" : 0,
					"maxclass" : "inlet",
					"numinlets" : 0,
					"numoutlets" : 1,
					"outlettype" : [ "" ],
					"patching_rect" : [ 50.0, 571.0, 25.0, 25.0 ]
				}

			}
, 			{
				"box" : 				{
					"id" : "obj-15",
					"lastchannelcount" : 0,
					"maxclass" : "live.gain~",
					"mode" : 1,
					"numinlets" : 2,
					"numoutlets" : 5,
					"orientation" : 1,
					"outlettype" : [ "signal", "signal", "", "float", "list" ],
					"parameter_enable" : 1,
					"patching_rect" : [ 24.0, 619.0, 186.0, 36.0 ],
					"presentation" : 1,
					"presentation_rect" : [ 5.0, 86.0, 263.0, 36.0 ],
					"saved_attribute_attributes" : 					{
						"valueof" : 						{
							"parameter_initial" : [ 0.0 ],
							"parameter_longname" : "live.gain~",
							"parameter_mmax" : 6.0,
							"parameter_mmin" : -70.0,
							"parameter_shortname" : "live.gain~",
							"parameter_type" : 0,
							"parameter_unitstyle" : 4
						}

					}
,
					"showname" : 0,
					"varname" : "live.gain~"
				}

			}
, 			{
				"box" : 				{
					"fontname" : "Arial",
					"fontsize" : 9.0,
					"id" : "obj-46",
					"maxclass" : "comment",
					"numinlets" : 1,
					"numoutlets" : 0,
					"patching_rect" : [ 173.018554999999992, 256.640106000000003, 26.0, 17.0 ],
					"presentation" : 1,
					"presentation_rect" : [ 122.0, 1.0, 28.0, 17.0 ],
					"text" : "loop",
					"textcolor" : [ 0.994565, 0.994565, 0.994565, 1.0 ]
				}

			}
, 			{
				"box" : 				{
					"id" : "obj-45",
					"maxclass" : "toggle",
					"numinlets" : 1,
					"numoutlets" : 1,
					"outlettype" : [ "int" ],
					"parameter_enable" : 0,
					"patching_rect" : [ 143.009276999999997, 256.640106000000003, 20.0, 20.0 ],
					"presentation" : 1,
					"presentation_rect" : [ 150.0, 1.0, 17.0, 17.0 ]
				}

			}
, 			{
				"box" : 				{
					"fontname" : "Arial",
					"fontsize" : 9.0,
					"id" : "obj-41",
					"maxclass" : "newobj",
					"numinlets" : 2,
					"numoutlets" : 1,
					"outlettype" : [ "" ],
					"patching_rect" : [ 143.009276999999997, 285.0, 36.0, 19.0 ],
					"text" : "gate 0"
				}

			}
, 			{
				"box" : 				{
					"fontname" : "Arial",
					"fontsize" : 9.0,
					"id" : "obj-40",
					"maxclass" : "newobj",
					"numinlets" : 1,
					"numoutlets" : 1,
					"outlettype" : [ "" ],
					"patching_rect" : [ 151.509276999999997, 113.462577999999993, 58.0, 19.0 ],
					"text" : "prepend set"
				}

			}
, 			{
				"box" : 				{
					"fontname" : "Arial",
					"fontsize" : 9.0,
					"id" : "obj-36",
					"maxclass" : "newobj",
					"numinlets" : 1,
					"numoutlets" : 5,
					"outlettype" : [ "float", "int", "int", "int", "int" ],
					"patching_rect" : [ 152.0, 93.318634000000003, 259.0, 19.0 ],
					"text" : "t 1. i i i i"
				}

			}
, 			{
				"box" : 				{
					"#init" : "",
					"#loadbang" : 0,
					"#triggerall" : 0,
					"#untuple" : 0,
					"fontface" : 0,
					"fontname" : "Arial",
					"fontsize" : 9.0,
					"ftm_objref_conv" : 0,
					"ftm_scope" : 0,
					"id" : "obj-19",
					"maxclass" : "ftm.mess",
					"numinlets" : 2,
					"numoutlets" : 1,
					"outlettype" : [ "" ],
					"patching_rect" : [ 151.509276999999997, 162.227355999999986, 40.51904296875, 15.0 ],
					"text" : [ "_($1 * $2)" ]
				}

			}
, 			{
				"box" : 				{
					"fontname" : "Arial",
					"fontsize" : 9.0,
					"id" : "obj-18",
					"maxclass" : "comment",
					"numinlets" : 1,
					"numoutlets" : 0,
					"patching_rect" : [ 123.0, 136.371413999999987, 26.0, 17.0 ],
					"presentation" : 1,
					"presentation_rect" : [ 41.007323999999997, 1.0, 26.0, 17.0 ],
					"text" : "rate",
					"textcolor" : [ 0.994565, 0.994565, 0.994565, 1.0 ]
				}

			}
, 			{
				"box" : 				{
					"bgcolor" : [ 0.157609, 0.157609, 0.157609, 1.0 ],
					"fontname" : "Arial",
					"fontsize" : 9.0,
					"format" : 6,
					"htricolor" : [ 0.87, 0.82, 0.24, 1.0 ],
					"id" : "obj-17",
					"maxclass" : "flonum",
					"minimum" : 0.0,
					"numinlets" : 1,
					"numoutlets" : 2,
					"outlettype" : [ "", "bang" ],
					"parameter_enable" : 0,
					"patching_rect" : [ 151.509276999999997, 136.371413999999987, 52.0, 19.0 ],
					"presentation" : 1,
					"presentation_rect" : [ 70.0, 1.0, 52.0, 19.0 ],
					"textcolor" : [ 0.0, 0.896739, 0.028855, 1.0 ],
					"tricolor" : [ 0.75, 0.75, 0.75, 1.0 ],
					"triscale" : 0.9
				}

			}
, 			{
				"box" : 				{
					"fontname" : "Arial",
					"fontsize" : 9.0,
					"id" : "obj-14",
					"maxclass" : "newobj",
					"numinlets" : 1,
					"numoutlets" : 1,
					"outlettype" : [ "bang" ],
					"patching_rect" : [ 123.0, 192.35893200000001, 21.0, 19.0 ],
					"text" : "t b"
				}

			}
, 			{
				"box" : 				{
					"#init" : "",
					"#loadbang" : 0,
					"#triggerall" : 0,
					"#untuple" : 0,
					"fontface" : 0,
					"fontname" : "Arial",
					"fontsize" : 9.0,
					"ftm_objref_conv" : 0,
					"ftm_scope" : 0,
					"id" : "obj-10",
					"maxclass" : "ftm.mess",
					"numinlets" : 2,
					"numoutlets" : 1,
					"outlettype" : [ "" ],
					"patching_rect" : [ 123.0, 176.35893200000001, 23.507810592651367, 15.0 ],
					"presentation" : 1,
					"presentation_rect" : [ 5.0, 1.0, 23.507810592651367, 15.0 ],
					"text" : [ "_Play" ]
				}

			}
, 			{
				"box" : 				{
					"#init" : "",
					"#loadbang" : 0,
					"#triggerall" : 0,
					"#untuple" : 0,
					"fontface" : 0,
					"fontname" : "Arial",
					"fontsize" : 9.0,
					"ftm_objref_conv" : 0,
					"ftm_scope" : 0,
					"id" : "obj-9",
					"maxclass" : "ftm.mess",
					"numinlets" : 3,
					"numins" : 3,
					"numoutlets" : 1,
					"outlettype" : [ "" ],
					"patching_rect" : [ 123.0, 217.244857999999994, 41.028804779052734, 15.0 ],
					"text" : [ "_0., $3 $2" ]
				}

			}
, 			{
				"box" : 				{
					"fontname" : "Arial",
					"fontsize" : 9.0,
					"id" : "obj-3",
					"maxclass" : "newobj",
					"numinlets" : 3,
					"numoutlets" : 2,
					"outlettype" : [ "", "bang" ],
					"patching_rect" : [ 123.0, 239.640106000000003, 56.009276999999997, 19.0 ],
					"text" : "line 0."
				}

			}
, 			{
				"box" : 				{
					"comment" : "",
					"id" : "obj-2",
					"index" : 0,
					"maxclass" : "outlet",
					"numinlets" : 1,
					"numoutlets" : 0,
					"patching_rect" : [ 65.75, 689.0, 25.0, 25.0 ]
				}

			}
, 			{
				"box" : 				{
					"comment" : "",
					"id" : "obj-1",
					"index" : 0,
					"maxclass" : "outlet",
					"numinlets" : 1,
					"numoutlets" : 0,
					"patching_rect" : [ 24.0, 689.0, 25.0, 25.0 ]
				}

			}
, 			{
				"box" : 				{
					"#init" : "0 46 5 100",
					"#loadbang" : 0,
					"#triggerall" : 0,
					"#untuple" : 0,
					"fontface" : 0,
					"fontname" : "Geneva",
					"fontsize" : 8.375361,
					"ftm_objref_conv" : 0,
					"ftm_scope" : 0,
					"id" : "obj-8",
					"maxclass" : "ftm.mess",
					"numinlets" : 2,
					"numoutlets" : 1,
					"outlettype" : [ "" ],
					"patching_rect" : [ 314.952148000000022, 500.0, 56.309421539306641, 15.0 ],
					"text" : [ "_types WAVE" ]
				}

			}
, 			{
				"box" : 				{
					"fontname" : "Arial",
					"fontsize" : 9.272783,
					"id" : "obj-63",
					"maxclass" : "newobj",
					"numinlets" : 0,
					"numoutlets" : 1,
					"outlettype" : [ "" ],
					"patching_rect" : [ 152.0, 73.547043000000002, 166.0, 19.0 ],
					"text" : "r size"
				}

			}
, 			{
				"box" : 				{
					"fontname" : "Arial",
					"fontsize" : 12.0,
					"id" : "obj-62",
					"maxclass" : "newobj",
					"numinlets" : 1,
					"numoutlets" : 0,
					"patching_rect" : [ 289.984436000000017, 689.0, 41.0, 22.0 ],
					"text" : "s size"
				}

			}
, 			{
				"box" : 				{
					"fontname" : "Arial",
					"fontsize" : 7.453665,
					"id" : "obj-61",
					"maxclass" : "message",
					"numinlets" : 2,
					"numoutlets" : 1,
					"outlettype" : [ "" ],
					"patching_rect" : [ 339.0, 292.0, 39.0, 17.0 ],
					"text" : "size $1"
				}

			}
, 			{
				"box" : 				{
					"fontname" : "Arial",
					"fontsize" : 12.0,
					"id" : "obj-59",
					"maxclass" : "newobj",
					"numinlets" : 1,
					"numoutlets" : 2,
					"outlettype" : [ "bang", "" ],
					"patching_rect" : [ 287.334166999999979, 587.0, 42.333343999999997, 22.0 ],
					"text" : "t b s"
				}

			}
, 			{
				"box" : 				{
					"#init" : "0 46 5 100",
					"#loadbang" : 0,
					"#triggerall" : 0,
					"#untuple" : 0,
					"fontface" : 0,
					"fontname" : "Geneva",
					"fontsize" : 8.375361,
					"ftm_objref_conv" : 0,
					"ftm_scope" : 0,
					"id" : "obj-58",
					"maxclass" : "ftm.mess",
					"numinlets" : 2,
					"numoutlets" : 1,
					"outlettype" : [ "" ],
					"patching_rect" : [ 215.834167000000008, 500.0, 101.052986145019531, 15.0 ],
					"text" : [ "_($buffDirs get sounds)" ]
				}

			}
, 			{
				"box" : 				{
					"#init" : "0 46 5 100",
					"#loadbang" : 0,
					"#triggerall" : 0,
					"#untuple" : 0,
					"fontface" : 0,
					"fontname" : "Geneva",
					"fontsize" : 8.375361,
					"ftm_objref_conv" : 0,
					"ftm_scope" : 0,
					"id" : "obj-57",
					"maxclass" : "ftm.mess",
					"numinlets" : 2,
					"numoutlets" : 1,
					"outlettype" : [ "" ],
					"patching_rect" : [ 511.834166999999979, 509.0, 169.049636840820312, 15.0 ],
					"text" : [ "_($buffDirs set sounds (cat $1 sound/))" ]
				}

			}
, 			{
				"box" : 				{
					"description" : "dict",
					"editor_interface" : "matrix",
					"fontface" : 0,
					"fontname" : "Arial",
					"fontsize" : 12.0,
					"ftm_objref_conv" : 0,
					"ftm_scope" : 0,
					"id" : "obj-56",
					"maxclass" : "ftm.object",
					"name" : "buffDirs",
					"numinlets" : 1,
					"numoutlets" : 2,
					"outlettype" : [ "", "" ],
					"patching_rect" : [ 310.667480000000012, 453.0, 84.666015999999999, 19.0 ],
					"persistence" : 0,
					"scope" : 0,
					"text" : "dict"
				}

			}
, 			{
				"box" : 				{
					"#init" : "0 46 5 100",
					"#loadbang" : 0,
					"#triggerall" : 0,
					"#untuple" : 0,
					"fontface" : 0,
					"fontname" : "Geneva",
					"fontsize" : 8.375361,
					"ftm_objref_conv" : 0,
					"ftm_scope" : 0,
					"id" : "obj-52",
					"maxclass" : "ftm.mess",
					"numinlets" : 2,
					"numoutlets" : 1,
					"outlettype" : [ "" ],
					"patching_rect" : [ 289.984436000000017, 661.0, 81.112434387207031, 15.0 ],
					"text" : [ "_($1 * 0.0226757)" ]
				}

			}
, 			{
				"box" : 				{
					"#init" : "0 46 5 100",
					"#loadbang" : 0,
					"#triggerall" : 0,
					"#untuple" : 0,
					"fontface" : 0,
					"fontname" : "Geneva",
					"fontsize" : 8.375361,
					"ftm_objref_conv" : 0,
					"ftm_scope" : 0,
					"id" : "obj-48",
					"maxclass" : "ftm.mess",
					"numinlets" : 2,
					"numoutlets" : 1,
					"outlettype" : [ "" ],
					"patching_rect" : [ 287.334166999999979, 639.0, 64.189949035644531, 15.0 ],
					"text" : [ "_(l ($buf size))" ]
				}

			}
, 			{
				"box" : 				{
					"fontname" : "Arial",
					"fontsize" : 12.0,
					"id" : "obj-43",
					"maxclass" : "newobj",
					"numinlets" : 1,
					"numoutlets" : 4,
					"outlettype" : [ "bang", "bang", "clear", "" ],
					"patching_rect" : [ 215.834167000000008, 476.0, 315.0, 22.0 ],
					"text" : "t b b clear s"
				}

			}
, 			{
				"box" : 				{
					"fontname" : "Arial",
					"fontsize" : 9.681654,
					"id" : "obj-39",
					"maxclass" : "newobj",
					"numinlets" : 1,
					"numoutlets" : 2,
					"outlettype" : [ "", "int" ],
					"patching_rect" : [ 215.834167000000008, 525.428588999999988, 36.0, 20.0 ],
					"text" : "folder"
				}

			}
, 			{
				"box" : 				{
					"#init" : "0 46 5 100",
					"#loadbang" : 1,
					"#triggerall" : 0,
					"#untuple" : 0,
					"fontface" : 0,
					"fontname" : "Geneva",
					"fontsize" : 9.0,
					"ftm_objref_conv" : 0,
					"ftm_scope" : 0,
					"id" : "obj-37",
					"maxclass" : "ftm.mess",
					"numinlets" : 2,
					"numoutlets" : 1,
					"outlettype" : [ "" ],
					"patching_rect" : [ 215.333373999999992, 428.0, 26.25439453125, 15.0 ],
					"text" : [ "_path" ]
				}

			}
, 			{
				"box" : 				{
					"#init" : "0 46 5 100",
					"#loadbang" : 0,
					"#triggerall" : 0,
					"#untuple" : 0,
					"fontface" : 0,
					"fontname" : "Geneva",
					"fontsize" : 8.375361,
					"ftm_objref_conv" : 0,
					"ftm_scope" : 0,
					"id" : "obj-38",
					"maxclass" : "ftm.mess",
					"numinlets" : 2,
					"numoutlets" : 1,
					"outlettype" : [ "" ],
					"patching_rect" : [ 310.667480000000012, 598.0, 168.456649780273438, 15.0 ],
					"text" : [ "_import (cat ($buffDirs get sounds) $1)" ]
				}

			}
, 			{
				"box" : 				{
					"fontname" : "Arial",
					"fontsize" : 9.0,
					"id" : "obj-7",
					"maxclass" : "newobj",
					"numinlets" : 1,
					"numoutlets" : 2,
					"outlettype" : [ "", "" ],
					"patching_rect" : [ 215.333373999999992, 453.0, 55.0, 19.0 ],
					"save" : [ "#N", "thispatcher", ";", "#Q", "end", ";" ],
					"text" : "thispatcher"
				}

			}
, 			{
				"box" : 				{
					"fontname" : "Arial",
					"fontsize" : 9.0,
					"id" : "obj-4",
					"maxclass" : "comment",
					"numinlets" : 1,
					"numoutlets" : 0,
					"patching_rect" : [ 429.0, 375.0, 73.0, 17.0 ],
					"presentation" : 1,
					"presentation_rect" : [ 76.0, 70.0, 66.0, 17.0 ],
					"text" : "grain duration",
					"textcolor" : [ 0.994565, 0.994565, 0.994565, 1.0 ]
				}

			}
, 			{
				"box" : 				{
					"fontname" : "Arial",
					"fontsize" : 9.0,
					"id" : "obj-5",
					"maxclass" : "comment",
					"numinlets" : 1,
					"numoutlets" : 0,
					"patching_rect" : [ 384.0, 350.0, 101.0, 17.0 ],
					"presentation" : 1,
					"presentation_rect" : [ 58.5, 53.0, 101.0, 17.0 ],
					"text" : "grain position variation",
					"textcolor" : [ 0.994565, 0.994565, 0.994565, 1.0 ]
				}

			}
, 			{
				"box" : 				{
					"fontname" : "Arial",
					"fontsize" : 9.0,
					"id" : "obj-11",
					"maxclass" : "newobj",
					"numinlets" : 1,
					"numoutlets" : 2,
					"outlettype" : [ "", "bang" ],
					"patching_rect" : [ 24.0, 468.0, 77.0, 19.0 ],
					"text" : "t l b"
				}

			}
, 			{
				"box" : 				{
					"fontname" : "Arial",
					"fontsize" : 9.0,
					"id" : "obj-12",
					"maxclass" : "newobj",
					"numinlets" : 2,
					"numoutlets" : 1,
					"outlettype" : [ "int" ],
					"patching_rect" : [ 82.0, 508.0, 27.0, 19.0 ],
					"text" : "+ 1"
				}

			}
, 			{
				"box" : 				{
					"id" : "obj-13",
					"maxclass" : "toggle",
					"numinlets" : 1,
					"numoutlets" : 1,
					"outlettype" : [ "int" ],
					"parameter_enable" : 0,
					"patching_rect" : [ 82.0, 490.0, 15.0, 15.0 ]
				}

			}
, 			{
				"box" : 				{
					"bgcolor" : [ 0.157609, 0.157609, 0.157609, 1.0 ],
					"fontname" : "Arial",
					"fontsize" : 9.0,
					"format" : 6,
					"htricolor" : [ 0.87, 0.82, 0.24, 1.0 ],
					"id" : "obj-22",
					"maxclass" : "flonum",
					"numinlets" : 1,
					"numoutlets" : 2,
					"outlettype" : [ "", "bang" ],
					"parameter_enable" : 0,
					"patching_rect" : [ 158.0, 375.0, 52.0, 19.0 ],
					"presentation" : 1,
					"presentation_rect" : [ 216.0, 69.0, 52.0, 19.0 ],
					"textcolor" : [ 0.0, 0.896739, 0.028855, 1.0 ],
					"tricolor" : [ 0.75, 0.75, 0.75, 1.0 ],
					"triscale" : 0.9
				}

			}
, 			{
				"box" : 				{
					"bgcolor" : [ 0.038043, 0.038043, 0.038043, 1.0 ],
					"id" : "obj-23",
					"knobcolor" : [ 0.777174, 0.777174, 0.777174, 1.0 ],
					"maxclass" : "slider",
					"numinlets" : 1,
					"numoutlets" : 1,
					"orientation" : 1,
					"outlettype" : [ "" ],
					"parameter_enable" : 0,
					"patching_rect" : [ 212.0, 375.0, 214.0, 17.0 ],
					"presentation" : 1,
					"presentation_rect" : [ 2.0, 69.0, 214.0, 17.0 ],
					"size" : 1001.0
				}

			}
, 			{
				"box" : 				{
					"fontname" : "Arial",
					"fontsize" : 9.0,
					"id" : "obj-24",
					"maxclass" : "newobj",
					"numinlets" : 2,
					"numoutlets" : 1,
					"outlettype" : [ "" ],
					"patching_rect" : [ 24.0, 447.0, 55.0, 19.0 ],
					"saved_object_attributes" : 					{
						"ftm_objref_conv" : 0,
						"ftm_scope" : 0
					}
,
					"text" : "gbr.wind="
				}

			}
, 			{
				"box" : 				{
					"fontname" : "Arial",
					"fontsize" : 9.0,
					"id" : "obj-26",
					"maxclass" : "newobj",
					"numinlets" : 2,
					"numoutlets" : 1,
					"outlettype" : [ "" ],
					"patching_rect" : [ 24.0, 426.0, 115.0, 19.0 ],
					"saved_object_attributes" : 					{
						"ftm_objref_conv" : 0,
						"ftm_scope" : 0
					}
,
					"text" : "gbr.copy $buf @unit msec"
				}

			}
, 			{
				"box" : 				{
					"bgcolor" : [ 0.157609, 0.157609, 0.157609, 1.0 ],
					"fontname" : "Arial",
					"fontsize" : 9.0,
					"format" : 6,
					"htricolor" : [ 0.87, 0.82, 0.24, 1.0 ],
					"id" : "obj-27",
					"maxclass" : "flonum",
					"numinlets" : 1,
					"numoutlets" : 2,
					"outlettype" : [ "", "bang" ],
					"parameter_enable" : 0,
					"patching_rect" : [ 113.0, 349.0, 52.0, 19.0 ],
					"presentation" : 1,
					"presentation_rect" : [ 216.0, 52.0, 52.0, 19.0 ],
					"textcolor" : [ 0.0, 0.896739, 0.028855, 1.0 ],
					"tricolor" : [ 0.75, 0.75, 0.75, 1.0 ],
					"triscale" : 0.9
				}

			}
, 			{
				"box" : 				{
					"bgcolor" : [ 0.038043, 0.038043, 0.038043, 1.0 ],
					"id" : "obj-28",
					"knobcolor" : [ 0.777174, 0.777174, 0.777174, 1.0 ],
					"maxclass" : "slider",
					"numinlets" : 1,
					"numoutlets" : 1,
					"orientation" : 1,
					"outlettype" : [ "" ],
					"parameter_enable" : 0,
					"patching_rect" : [ 167.0, 349.0, 214.0, 17.0 ],
					"presentation" : 1,
					"presentation_rect" : [ 2.0, 52.0, 214.0, 17.0 ],
					"size" : 1001.0
				}

			}
, 			{
				"box" : 				{
					"bgcolor" : [ 0.157609, 0.157609, 0.157609, 1.0 ],
					"fontname" : "Arial",
					"fontsize" : 9.0,
					"format" : 6,
					"htricolor" : [ 0.87, 0.82, 0.24, 1.0 ],
					"id" : "obj-29",
					"maxclass" : "flonum",
					"numinlets" : 1,
					"numoutlets" : 2,
					"outlettype" : [ "", "bang" ],
					"parameter_enable" : 0,
					"patching_rect" : [ 69.0, 324.0, 52.0, 19.0 ],
					"presentation" : 1,
					"presentation_rect" : [ 216.0, 35.0, 52.0, 19.0 ],
					"textcolor" : [ 0.0, 0.896739, 0.028855, 1.0 ],
					"tricolor" : [ 0.75, 0.75, 0.75, 1.0 ],
					"triscale" : 0.9
				}

			}
, 			{
				"box" : 				{
					"description" : "fmat",
					"editor_interface" : "matrix",
					"fontface" : 0,
					"fontname" : "Geneva",
					"fontsize" : 9.0,
					"ftm_objref_conv" : 0,
					"ftm_scope" : 0,
					"id" : "obj-32",
					"maxclass" : "ftm.object",
					"name" : "buf",
					"numinlets" : 1,
					"numoutlets" : 2,
					"outlettype" : [ "", "" ],
					"patching_rect" : [ 310.667480000000012, 619.0, 53.997562000000002, 16.0 ],
					"persistence" : 0,
					"scope" : 0,
					"text" : "fmat"
				}

			}
, 			{
				"box" : 				{
					"fontname" : "Arial",
					"fontsize" : 9.0,
					"id" : "obj-33",
					"maxclass" : "newobj",
					"numinlets" : 3,
					"numoutlets" : 2,
					"outlettype" : [ "signal", "signal" ],
					"patching_rect" : [ 24.0, 530.0, 77.0, 19.0 ],
					"saved_object_attributes" : 					{
						"ftm_objref_conv" : 0,
						"ftm_scope" : 0
					}
,
					"text" : "gbr.ola~ 2 500"
				}

			}
, 			{
				"box" : 				{
					"#init" : "0 46 5 100",
					"#loadbang" : 0,
					"#triggerall" : 0,
					"#untuple" : 0,
					"fontface" : 0,
					"fontname" : "Geneva",
					"fontsize" : 9.0,
					"ftm_objref_conv" : 0,
					"ftm_scope" : 2,
					"id" : "obj-34",
					"maxclass" : "ftm.mess",
					"numinlets" : 4,
					"numins" : 4,
					"numoutlets" : 1,
					"outlettype" : [ "" ],
					"patching_rect" : [ 23.351399739583343, 397.382353067398071, 155.94580078125, 15.0 ],
					"text" : [ "_($2 + (random (-1 * $3) $3)) $4" ]
				}

			}
, 			{
				"box" : 				{
					"fontname" : "Arial",
					"fontsize" : 9.0,
					"id" : "obj-35",
					"maxclass" : "comment",
					"numinlets" : 1,
					"numoutlets" : 0,
					"patching_rect" : [ 340.0, 325.0, 71.0, 17.0 ],
					"presentation" : 1,
					"presentation_rect" : [ 77.0, 35.0, 64.0, 17.0 ],
					"text" : "grain position",
					"textcolor" : [ 0.994565, 0.994565, 0.994565, 1.0 ]
				}

			}
, 			{
				"box" : 				{
					"bgcolor" : [ 0.038043, 0.038043, 0.038043, 1.0 ],
					"floatoutput" : 1,
					"id" : "obj-30",
					"knobcolor" : [ 0.777174, 0.777174, 0.777174, 1.0 ],
					"maxclass" : "slider",
					"numinlets" : 1,
					"numoutlets" : 1,
					"orientation" : 1,
					"outlettype" : [ "" ],
					"parameter_enable" : 0,
					"patching_rect" : [ 123.0, 324.0, 214.0, 17.0 ],
					"presentation" : 1,
					"presentation_rect" : [ 2.0, 35.0, 214.0, 17.0 ],
					"size" : 104161.0
				}

			}
 ],
		"lines" : [ 			{
				"patchline" : 				{
					"destination" : [ "obj-14", 0 ],
					"source" : [ "obj-10", 0 ]
				}

			}
, 			{
				"patchline" : 				{
					"destination" : [ "obj-13", 0 ],
					"source" : [ "obj-11", 1 ]
				}

			}
, 			{
				"patchline" : 				{
					"destination" : [ "obj-33", 0 ],
					"source" : [ "obj-11", 0 ]
				}

			}
, 			{
				"patchline" : 				{
					"destination" : [ "obj-33", 2 ],
					"source" : [ "obj-12", 0 ]
				}

			}
, 			{
				"patchline" : 				{
					"destination" : [ "obj-12", 0 ],
					"source" : [ "obj-13", 0 ]
				}

			}
, 			{
				"patchline" : 				{
					"destination" : [ "obj-9", 0 ],
					"source" : [ "obj-14", 0 ]
				}

			}
, 			{
				"patchline" : 				{
					"destination" : [ "obj-1", 0 ],
					"source" : [ "obj-15", 0 ]
				}

			}
, 			{
				"patchline" : 				{
					"destination" : [ "obj-2", 0 ],
					"source" : [ "obj-15", 1 ]
				}

			}
, 			{
				"patchline" : 				{
					"destination" : [ "obj-15", 0 ],
					"source" : [ "obj-16", 0 ]
				}

			}
, 			{
				"patchline" : 				{
					"destination" : [ "obj-19", 0 ],
					"source" : [ "obj-17", 0 ]
				}

			}
, 			{
				"patchline" : 				{
					"destination" : [ "obj-3", 1 ],
					"order" : 0,
					"source" : [ "obj-19", 0 ]
				}

			}
, 			{
				"patchline" : 				{
					"destination" : [ "obj-9", 1 ],
					"order" : 1,
					"source" : [ "obj-19", 0 ]
				}

			}
, 			{
				"patchline" : 				{
					"destination" : [ "obj-34", 3 ],
					"source" : [ "obj-22", 0 ]
				}

			}
, 			{
				"patchline" : 				{
					"destination" : [ "obj-22", 0 ],
					"hidden" : 1,
					"source" : [ "obj-23", 0 ]
				}

			}
, 			{
				"patchline" : 				{
					"destination" : [ "obj-11", 0 ],
					"source" : [ "obj-24", 0 ]
				}

			}
, 			{
				"patchline" : 				{
					"destination" : [ "obj-24", 0 ],
					"source" : [ "obj-26", 0 ]
				}

			}
, 			{
				"patchline" : 				{
					"destination" : [ "obj-34", 2 ],
					"source" : [ "obj-27", 0 ]
				}

			}
, 			{
				"patchline" : 				{
					"destination" : [ "obj-27", 0 ],
					"hidden" : 1,
					"source" : [ "obj-28", 0 ]
				}

			}
, 			{
				"patchline" : 				{
					"destination" : [ "obj-34", 1 ],
					"source" : [ "obj-29", 0 ]
				}

			}
, 			{
				"patchline" : 				{
					"destination" : [ "obj-30", 0 ],
					"source" : [ "obj-3", 0 ]
				}

			}
, 			{
				"patchline" : 				{
					"destination" : [ "obj-41", 1 ],
					"source" : [ "obj-3", 1 ]
				}

			}
, 			{
				"patchline" : 				{
					"destination" : [ "obj-29", 0 ],
					"hidden" : 1,
					"source" : [ "obj-30", 0 ]
				}

			}
, 			{
				"patchline" : 				{
					"destination" : [ "obj-23", 0 ],
					"source" : [ "obj-31", 0 ]
				}

			}
, 			{
				"patchline" : 				{
					"destination" : [ "obj-15", 1 ],
					"source" : [ "obj-33", 1 ]
				}

			}
, 			{
				"patchline" : 				{
					"destination" : [ "obj-15", 0 ],
					"source" : [ "obj-33", 0 ]
				}

			}
, 			{
				"patchline" : 				{
					"destination" : [ "obj-26", 0 ],
					"source" : [ "obj-34", 0 ]
				}

			}
, 			{
				"patchline" : 				{
					"destination" : [ "obj-19", 1 ],
					"midpoints" : [ 221.5, 158.233520999999996, 182.528319968749997, 158.233520999999996 ],
					"source" : [ "obj-36", 1 ]
				}

			}
, 			{
				"patchline" : 				{
					"destination" : [ "obj-40", 0 ],
					"source" : [ "obj-36", 0 ]
				}

			}
, 			{
				"patchline" : 				{
					"destination" : [ "obj-61", 0 ],
					"source" : [ "obj-36", 4 ]
				}

			}
, 			{
				"patchline" : 				{
					"destination" : [ "obj-9", 2 ],
					"midpoints" : [ 341.5, 207.943862999999993, 154.528804779052734, 207.943862999999993 ],
					"source" : [ "obj-36", 3 ]
				}

			}
, 			{
				"patchline" : 				{
					"destination" : [ "obj-9", 1 ],
					"midpoints" : [ 281.5, 204.300445999999994, 143.514402389526367, 204.300445999999994 ],
					"source" : [ "obj-36", 2 ]
				}

			}
, 			{
				"patchline" : 				{
					"destination" : [ "obj-7", 0 ],
					"source" : [ "obj-37", 0 ]
				}

			}
, 			{
				"patchline" : 				{
					"destination" : [ "obj-32", 0 ],
					"source" : [ "obj-38", 0 ]
				}

			}
, 			{
				"patchline" : 				{
					"destination" : [ "obj-17", 0 ],
					"source" : [ "obj-40", 0 ]
				}

			}
, 			{
				"patchline" : 				{
					"destination" : [ "obj-10", 0 ],
					"midpoints" : [ 152.509276999999997, 306.735107000000028, 109.282143000000005, 306.735107000000028, 109.282143000000005, 165.165053999999998, 132.5, 165.165053999999998 ],
					"source" : [ "obj-41", 0 ]
				}

			}
, 			{
				"patchline" : 				{
					"destination" : [ "obj-66", 0 ],
					"source" : [ "obj-42", 0 ]
				}

			}
, 			{
				"patchline" : 				{
					"destination" : [ "obj-57", 0 ],
					"source" : [ "obj-43", 3 ]
				}

			}
, 			{
				"patchline" : 				{
					"destination" : [ "obj-58", 0 ],
					"source" : [ "obj-43", 0 ]
				}

			}
, 			{
				"patchline" : 				{
					"destination" : [ "obj-8", 0 ],
					"source" : [ "obj-43", 1 ]
				}

			}
, 			{
				"patchline" : 				{
					"destination" : [ "obj-41", 0 ],
					"source" : [ "obj-45", 0 ]
				}

			}
, 			{
				"patchline" : 				{
					"destination" : [ "obj-30", 0 ],
					"source" : [ "obj-47", 0 ]
				}

			}
, 			{
				"patchline" : 				{
					"destination" : [ "obj-52", 0 ],
					"source" : [ "obj-48", 0 ]
				}

			}
, 			{
				"patchline" : 				{
					"destination" : [ "obj-28", 0 ],
					"source" : [ "obj-49", 0 ]
				}

			}
, 			{
				"patchline" : 				{
					"destination" : [ "obj-65", 0 ],
					"source" : [ "obj-50", 0 ]
				}

			}
, 			{
				"patchline" : 				{
					"destination" : [ "obj-62", 0 ],
					"source" : [ "obj-52", 0 ]
				}

			}
, 			{
				"patchline" : 				{
					"destination" : [ "obj-42", 0 ],
					"source" : [ "obj-55", 1 ]
				}

			}
, 			{
				"patchline" : 				{
					"destination" : [ "obj-64", 0 ],
					"source" : [ "obj-55", 0 ]
				}

			}
, 			{
				"patchline" : 				{
					"destination" : [ "obj-39", 0 ],
					"source" : [ "obj-58", 0 ]
				}

			}
, 			{
				"patchline" : 				{
					"destination" : [ "obj-38", 0 ],
					"source" : [ "obj-59", 1 ]
				}

			}
, 			{
				"patchline" : 				{
					"destination" : [ "obj-48", 0 ],
					"source" : [ "obj-59", 0 ]
				}

			}
, 			{
				"patchline" : 				{
					"destination" : [ "obj-53", 0 ],
					"source" : [ "obj-60", 0 ]
				}

			}
, 			{
				"patchline" : 				{
					"destination" : [ "obj-30", 0 ],
					"source" : [ "obj-61", 0 ]
				}

			}
, 			{
				"patchline" : 				{
					"destination" : [ "obj-36", 0 ],
					"source" : [ "obj-63", 0 ]
				}

			}
, 			{
				"patchline" : 				{
					"destination" : [ "obj-60", 0 ],
					"source" : [ "obj-64", 0 ]
				}

			}
, 			{
				"patchline" : 				{
					"destination" : [ "obj-34", 0 ],
					"source" : [ "obj-65", 0 ]
				}

			}
, 			{
				"patchline" : 				{
					"destination" : [ "obj-55", 0 ],
					"source" : [ "obj-67", 0 ]
				}

			}
, 			{
				"patchline" : 				{
					"destination" : [ "obj-43", 0 ],
					"source" : [ "obj-7", 1 ]
				}

			}
, 			{
				"patchline" : 				{
					"destination" : [ "obj-39", 0 ],
					"midpoints" : [ 324.452148000000022, 519.714293999999995, 225.334167000000008, 519.714293999999995 ],
					"source" : [ "obj-8", 0 ]
				}

			}
, 			{
				"patchline" : 				{
					"destination" : [ "obj-3", 0 ],
					"source" : [ "obj-9", 0 ]
				}

			}
 ],
		"parameters" : 		{
			"obj-15" : [ "live.gain~", "live.gain~", 0 ],
			"parameterbanks" : 			{

			}
,
			"inherited_shortname" : 1
		}
,
		"dependency_cache" : [ 			{
				"name" : "ftm.mess.mxe64",
				"type" : "mx64"
			}
, 			{
				"name" : "gbr.ola~.mxe64",
				"type" : "mx64"
			}
, 			{
				"name" : "ftm.object.mxe64",
				"type" : "mx64"
			}
, 			{
				"name" : "gbr.copy.mxe64",
				"type" : "mx64"
			}
, 			{
				"name" : "gbr.wind=.mxe64",
				"type" : "mx64"
			}
 ],
		"autosave" : 0,
		"styles" : [ 			{
				"name" : "tap",
				"default" : 				{
					"fontname" : [ "Lato Light" ]
				}
,
				"parentstyle" : "",
				"multi" : 0
			}
 ],
		"bgcolor" : [ 0.179348, 0.179348, 0.179348, 1.0 ]
	}

}
